<svg id="Layer_3" enable-background="new 0 0 64 64" height="512" viewBox="0 0 64 64" width="512" xmlns="http://www.w3.org/2000/svg"><path d="m2 58h60v4h-60z" fill="#737373"/><path d="m2 58h57v4h-57z" fill="#999"/><path d="m4 58v-20h56v20" fill="#4c4d4c"/><path d="m4 38h53v20h-53z" fill="#656665"/><path d="m50 42h4v4h-4z" fill="#4f75ad"/><path d="m50 42h2v4h-2z" fill="#699ce6"/><path d="m42 42h4v4h-4z" fill="#4f75ad"/><path d="m42 42h2v4h-2z" fill="#699ce6"/><path d="m34 42h4v4h-4z" fill="#4f75ad"/><path d="m34 42h2v4h-2z" fill="#699ce6"/><path d="m26 42h4v4h-4z" fill="#4f75ad"/><path d="m26 42h2v4h-2z" fill="#699ce6"/><path d="m18 42h4v4h-4z" fill="#4f75ad"/><path d="m18 42h2v4h-2z" fill="#699ce6"/><path d="m10 42h4v4h-4z" fill="#4f75ad"/><path d="m10 42h2v4h-2z" fill="#699ce6"/><path d="m10 50h8v8h-8z" fill="#999"/><path d="m10 50h5v8h-5z" fill="#adadad"/><path d="m22 50h8v8h-8z" fill="#999"/><path d="m22 50h5v8h-5z" fill="#adadad"/><path d="m34 50h8v8h-8z" fill="#999"/><path d="m34 50h5v8h-5z" fill="#adadad"/><path d="m46 50h8v8h-8z" fill="#999"/><path d="m46 50h5v8h-5z" fill="#adadad"/><path d="m12 2h40v36h-40z" fill="#737373"/><path d="m12 2h37v36h-37z" fill="#999"/><path d="m12 6h10v10h-10z" fill="#4f75ad"/><path d="m12 6h7v10h-7z" fill="#699ce6"/><path d="m22 6h10v10h-10z" fill="#4f75ad"/><path d="m22 6h7v10h-7z" fill="#699ce6"/><path d="m32 6h10v10h-10z" fill="#4f75ad"/><path d="m32 6h7v10h-7z" fill="#699ce6"/><path d="m42 6h10v10h-10z" fill="#4f75ad"/><path d="m42 6h7v10h-7z" fill="#699ce6"/><path d="m42 20h10v10h-10z" fill="#4f75ad"/><path d="m42 20h7v10h-7z" fill="#699ce6"/><path d="m32 20h10v10h-10z" fill="#4f75ad"/><path d="m32 20h7v10h-7z" fill="#699ce6"/><path d="m22 20h10v10h-10z" fill="#4f75ad"/><path d="m22 20h7v10h-7z" fill="#699ce6"/><path d="m12 20h10v10h-10z" fill="#4f75ad"/><path d="m12 20h7v10h-7z" fill="#699ce6"/><path d="m12 33h40v2h-40z" fill="#565656"/></svg>