<?xml version="1.0" encoding="iso-8859-1"?>
<!-- Generator: Adobe Illustrator 19.0.0, SVG Export Plug-In . SVG Version: 6.00 Build 0)  -->
<svg version="1.1" id="Capa_1" xmlns="http://www.w3.org/2000/svg" xmlns:xlink="http://www.w3.org/1999/xlink" x="0px" y="0px"
	 viewBox="0 0 503.662 503.662" style="enable-background:new 0 0 503.662 503.662;" xml:space="preserve">
<g transform="translate(0 -1)">
	<g>
		<path style="fill:#3F5C6C;" d="M156.042,504.661c0-34.832-38.035-69.664-78.372-69.664c-36.436,0-70.994,28.42-77.337,59.59
			c-0.432,2.525,0.281,5.111,1.946,7.058s4.11,3.052,6.671,3.016H156.042z"/>
		<path style="fill:#3F5C6C;" d="M347.619,504.661c0-34.832-46.487-78.372-95.788-78.372s-95.788,43.54-95.788,78.372H347.619z"/>
		<path style="fill:#3F5C6C;" d="M494.713,504.661c2.561,0.036,5.006-1.07,6.671-3.016s2.378-4.533,1.946-7.058
			c-6.344-31.169-40.901-59.59-77.337-59.59c-40.337,0-78.372,34.832-78.372,69.664H494.713z"/>
	</g>
	<path style="fill:#F0C419;" d="M286.543,53.068h-69.424C217.119,25.298,251.831,1,251.831,1S286.543,25.298,286.543,53.068z"/>
	<rect x="217.119" y="53.068" style="fill:#E57E25;" width="69.424" height="104.136"/>
	<g>
		<polygon style="fill:#C03A2B;" points="217.119,113.814 217.119,191.308 182.407,226.627 182.407,148.525 		"/>
		<polygon style="fill:#C03A2B;" points="321.255,148.525 321.255,226.627 286.543,191.308 286.543,113.814 		"/>
	</g>
	<path style="fill:#F0C419;" d="M286.543,200.506c0,13.885-34.712,60.833-34.712,60.833s-34.712-46.948-34.712-60.833
		c-0.011-2.935,0.705-5.827,2.083-8.418h65.258C285.838,194.68,286.554,197.572,286.543,200.506z"/>
	<rect x="217.119" y="157.203" style="fill:#F29C1F;" width="69.424" height="34.712"/>
	<g>
		<path style="fill:#2FA8CC;" d="M78.272,322.093c-4.793,0-8.678-3.885-8.678-8.678v-86.78c0.028-23.952,19.438-43.362,43.39-43.39
			h69.424c4.793,0,8.678,3.885,8.678,8.678s-3.885,8.678-8.678,8.678h-69.424c-14.372,0.016-26.018,11.662-26.034,26.034v86.78
			C86.949,318.208,83.064,322.093,78.272,322.093z"/>
		<path style="fill:#2FA8CC;" d="M425.39,322.093c-4.793,0-8.678-3.885-8.678-8.678v-86.78
			c-0.016-14.372-11.662-26.018-26.034-26.034h-69.424c-4.793,0-8.678-3.885-8.678-8.678s3.885-8.678,8.678-8.678h69.424
			c23.952,0.028,43.362,19.438,43.39,43.39v86.78C434.068,318.208,430.183,322.093,425.39,322.093z"/>
	</g>
	<g>
		<circle style="fill:#CBB292;" cx="425.39" cy="383.004" r="60.746"/>
		<circle style="fill:#CBB292;" cx="251.831" cy="365.648" r="69.424"/>
		<circle style="fill:#CBB292;" cx="78.272" cy="383.004" r="60.746"/>
	</g>
	<path style="fill:#2FA8CC;" d="M251.831,296.06c-4.793,0-8.678-3.885-8.678-8.678v-26.034c0-4.793,3.885-8.678,8.678-8.678
		c4.793,0,8.678,3.885,8.678,8.678v26.034C260.509,292.174,256.624,296.059,251.831,296.06z"/>
</g>
<g>
</g>
<g>
</g>
<g>
</g>
<g>
</g>
<g>
</g>
<g>
</g>
<g>
</g>
<g>
</g>
<g>
</g>
<g>
</g>
<g>
</g>
<g>
</g>
<g>
</g>
<g>
</g>
<g>
</g>
</svg>
