<?xml version="1.0" encoding="iso-8859-1"?>
<!-- Generator: Adobe Illustrator 19.0.0, SVG Export Plug-In . SVG Version: 6.00 Build 0)  -->
<svg version="1.1" id="Capa_1" xmlns="http://www.w3.org/2000/svg" xmlns:xlink="http://www.w3.org/1999/xlink" x="0px" y="0px"
	 viewBox="0 0 512.004 512.004" style="enable-background:new 0 0 512.004 512.004;" xml:space="preserve">
<g>
	<path style="fill:#D1D4D1;" d="M335.45,282.483h176.552v211.862c0,9.751-7.905,17.655-17.655,17.655H353.105
		c-9.751,0-17.655-7.905-17.655-17.655V282.483z"/>
	<path style="fill:#FFFFFF;" d="M379.588,317.793h88.276c4.875,0,8.828,3.952,8.828,8.828v17.655c0,4.875-3.952,8.828-8.828,8.828
		h-88.276c-4.875,0-8.828-3.952-8.828-8.828v-17.655C370.76,321.745,374.713,317.793,379.588,317.793z"/>
	<g>
		<path style="fill:#2FA8CC;" d="M459.036,432.552c-2.341,0.001-4.587-0.929-6.243-2.585c-1.656-1.656-2.585-3.901-2.585-6.243
			v-35.31c0-4.875,3.952-8.828,8.828-8.828s8.828,3.952,8.828,8.828v35.31c0.001,2.341-0.929,4.587-2.585,6.243
			C463.623,431.622,461.378,432.552,459.036,432.552z"/>
		<path style="fill:#2FA8CC;" d="M476.691,414.897h-35.31c-4.875,0-8.828-3.952-8.828-8.828s3.952-8.828,8.828-8.828h35.31
			c4.875,0,8.828,3.952,8.828,8.828S481.567,414.897,476.691,414.897z"/>
	</g>
	<path style="fill:#C03A2B;" d="M476.691,476.69h-35.31c-4.875,0-8.828-3.952-8.828-8.828s3.952-8.828,8.828-8.828h35.31
		c4.875,0,8.828,3.952,8.828,8.828S481.567,476.69,476.691,476.69z"/>
	<path style="fill:#95A5A5;" d="M335.45,88.276v335.448c-0.018,48.746-39.53,88.258-88.276,88.276H79.45
		c43.877-0.004,79.445-35.572,79.448-79.448V79.448C158.898,35.31,199.029,0,247.174,0C295.92,0.018,335.432,39.53,335.45,88.276z"
		/>
	<path style="fill:#7F8C8D;" d="M158.898,185.379v244.443c0.551,42.527-31.781,78.285-74.149,82.005
		c-21.942,1.463-43.51-6.232-59.57-21.255s-25.176-36.03-25.178-58.021V185.379c0-9.751,7.904-17.655,17.655-17.655h123.586
		C150.994,167.724,158.898,175.629,158.898,185.379z"/>
	<path style="fill:#2FA8CC;" d="M406.071,432.552h-35.31c-2.341,0.001-4.587-0.929-6.243-2.585
		c-1.656-1.656-2.585-3.901-2.585-6.243v-35.31c-0.001-2.341,0.929-4.587,2.585-6.243c1.656-1.656,3.901-2.585,6.243-2.585h35.31
		c2.341-0.001,4.587,0.929,6.243,2.585c1.656,1.656,2.585,3.901,2.585,6.243v35.31c0.001,2.341-0.929,4.587-2.585,6.243
		C410.658,431.622,408.412,432.552,406.071,432.552z M379.588,414.897h17.655v-17.655h-17.655V414.897z"/>
	<g>
		<circle style="fill:#C03A2B;" cx="370.76" cy="467.862" r="8.828"/>
		<circle style="fill:#C03A2B;" cx="406.071" cy="467.862" r="8.828"/>
	</g>
	<path style="fill:#BDC3C7;" d="M512.002,86.828v195.655H335.45V88.276C335.432,39.53,295.92,0.018,247.174,0h178
		C473.128,0,512.002,38.874,512.002,86.828z"/>
	<g>
		<path style="fill:#2C3E50;" d="M476.691,247.172H370.76c-4.875,0-8.828-3.952-8.828-8.828c0-4.875,3.952-8.828,8.828-8.828
			h105.931c4.875,0,8.828,3.952,8.828,8.828C485.519,243.22,481.567,247.172,476.691,247.172z"/>
		<path style="fill:#2C3E50;" d="M406.071,211.862h-35.31c-4.875,0-8.828-3.952-8.828-8.828s3.952-8.828,8.828-8.828h35.31
			c4.875,0,8.828,3.952,8.828,8.828S410.946,211.862,406.071,211.862z"/>
		<path style="fill:#2C3E50;" d="M432.553,176.552H370.76c-4.875,0-8.828-3.952-8.828-8.828s3.952-8.828,8.828-8.828h61.793
			c4.875,0,8.828,3.952,8.828,8.828S437.429,176.552,432.553,176.552z"/>
		<path style="fill:#2C3E50;" d="M476.691,141.241H370.76c-4.875,0-8.828-3.952-8.828-8.828s3.952-8.828,8.828-8.828h105.931
			c4.875,0,8.828,3.952,8.828,8.828S481.567,141.241,476.691,141.241z"/>
		<path style="fill:#2C3E50;" d="M432.553,105.931H370.76c-4.875,0-8.828-3.952-8.828-8.828s3.952-8.828,8.828-8.828h61.793
			c4.875,0,8.828,3.952,8.828,8.828S437.429,105.931,432.553,105.931z"/>
	</g>
	<g>
		<path style="fill:#35495E;" d="M256.002,406.069h-61.793c-4.875,0-8.828-3.952-8.828-8.828c0-4.875,3.952-8.828,8.828-8.828
			h61.793c4.875,0,8.828,3.952,8.828,8.828C264.829,402.117,260.877,406.069,256.002,406.069z"/>
		<path style="fill:#35495E;" d="M300.14,441.379H194.209c-4.875,0-8.828-3.952-8.828-8.828s3.952-8.828,8.828-8.828H300.14
			c4.875,0,8.828,3.952,8.828,8.828S305.015,441.379,300.14,441.379z"/>
		<path style="fill:#35495E;" d="M300.14,370.759H194.209c-4.875,0-8.828-3.952-8.828-8.828s3.952-8.828,8.828-8.828H300.14
			c4.875,0,8.828,3.952,8.828,8.828S305.015,370.759,300.14,370.759z"/>
		<path style="fill:#35495E;" d="M238.347,335.448h-44.138c-4.875,0-8.828-3.952-8.828-8.828s3.952-8.828,8.828-8.828h44.138
			c4.875,0,8.828,3.952,8.828,8.828S243.222,335.448,238.347,335.448z"/>
		<path style="fill:#35495E;" d="M256.002,158.897h-61.793c-4.875,0-8.828-3.952-8.828-8.828s3.952-8.828,8.828-8.828h61.793
			c4.875,0,8.828,3.952,8.828,8.828S260.877,158.897,256.002,158.897z"/>
		<path style="fill:#35495E;" d="M238.347,88.276h-44.138c-4.875,0-8.828-3.952-8.828-8.828c0-4.875,3.952-8.828,8.828-8.828h44.138
			c4.875,0,8.828,3.952,8.828,8.828C247.174,84.324,243.222,88.276,238.347,88.276z"/>
		<path style="fill:#35495E;" d="M300.14,300.138H194.209c-4.875,0-8.828-3.952-8.828-8.828s3.952-8.828,8.828-8.828H300.14
			c4.875,0,8.828,3.952,8.828,8.828S305.015,300.138,300.14,300.138z"/>
		<path style="fill:#35495E;" d="M300.14,123.586H194.209c-4.875,0-8.828-3.952-8.828-8.828s3.952-8.828,8.828-8.828H300.14
			c4.875,0,8.828,3.952,8.828,8.828S305.015,123.586,300.14,123.586z"/>
		<path style="fill:#35495E;" d="M97.105,406.069H35.312c-4.875,0-8.828-3.952-8.828-8.828c0-4.875,3.952-8.828,8.828-8.828h61.793
			c4.875,0,8.828,3.952,8.828,8.828C105.933,402.117,101.981,406.069,97.105,406.069z"/>
		<path style="fill:#35495E;" d="M123.588,441.379H35.312c-4.875,0-8.828-3.952-8.828-8.828s3.952-8.828,8.828-8.828h88.276
			c4.875,0,8.828,3.952,8.828,8.828S128.463,441.379,123.588,441.379z"/>
		<path style="fill:#35495E;" d="M70.622,370.759h-35.31c-4.875,0-8.828-3.952-8.828-8.828s3.952-8.828,8.828-8.828h35.31
			c4.875,0,8.828,3.952,8.828,8.828S75.498,370.759,70.622,370.759z"/>
		<path style="fill:#35495E;" d="M123.588,264.828H35.312c-4.875,0-8.828-3.952-8.828-8.828s3.952-8.828,8.828-8.828h88.276
			c4.875,0,8.828,3.952,8.828,8.828S128.463,264.828,123.588,264.828z"/>
		<path style="fill:#35495E;" d="M123.588,335.448H35.312c-4.875,0-8.828-3.952-8.828-8.828s3.952-8.828,8.828-8.828h88.276
			c4.875,0,8.828,3.952,8.828,8.828S128.463,335.448,123.588,335.448z"/>
		<path style="fill:#35495E;" d="M88.278,300.138H35.312c-4.875,0-8.828-3.952-8.828-8.828s3.952-8.828,8.828-8.828h52.966
			c4.875,0,8.828,3.952,8.828,8.828S93.153,300.138,88.278,300.138z"/>
		<path style="fill:#35495E;" d="M256.002,264.828h-61.793c-4.875,0-8.828-3.952-8.828-8.828s3.952-8.828,8.828-8.828h61.793
			c4.875,0,8.828,3.952,8.828,8.828S260.877,264.828,256.002,264.828z"/>
		<path style="fill:#35495E;" d="M229.519,229.517h-35.31c-4.875,0-8.828-3.952-8.828-8.828s3.952-8.828,8.828-8.828h35.31
			c4.875,0,8.828,3.952,8.828,8.828S234.394,229.517,229.519,229.517z"/>
		<path style="fill:#35495E;" d="M291.312,194.207h-97.103c-4.875,0-8.828-3.952-8.828-8.828c0-4.875,3.952-8.828,8.828-8.828
			h97.103c4.875,0,8.828,3.952,8.828,8.828C300.14,190.255,296.187,194.207,291.312,194.207z"/>
	</g>
	<path style="fill:#2C3E50;" d="M467.864,70.621H370.76c-4.875,0-8.828-3.952-8.828-8.828s3.952-8.828,8.828-8.828h97.103
		c4.875,0,8.828,3.952,8.828,8.828S472.739,70.621,467.864,70.621z"/>
</g>
<g>
</g>
<g>
</g>
<g>
</g>
<g>
</g>
<g>
</g>
<g>
</g>
<g>
</g>
<g>
</g>
<g>
</g>
<g>
</g>
<g>
</g>
<g>
</g>
<g>
</g>
<g>
</g>
<g>
</g>
</svg>
