<?xml version="1.0" encoding="iso-8859-1"?>
<!-- Generator: Adobe Illustrator 19.0.0, SVG Export Plug-In . SVG Version: 6.00 Build 0)  -->
<svg version="1.1" id="Layer_1" xmlns="http://www.w3.org/2000/svg" xmlns:xlink="http://www.w3.org/1999/xlink" x="0px" y="0px"
	 viewBox="0 0 512 512" style="enable-background:new 0 0 512 512;" xml:space="preserve">
<g>
	<path style="fill:#CB8252;" d="M281.6,226.133H76.8V55.467c0-9.429,7.637-17.067,17.067-17.067h170.667
		c9.429,0,17.067,7.637,17.067,17.067V226.133z"/>
	<polygon style="fill:#F9EBB0;" points="145.066,89.6 213.332,89.6 213.332,38.4 145.066,38.4 	"/>
	<g>
		<polygon style="fill:#962B23;" points="34.132,499.2 85.332,499.2 85.332,379.733 34.132,379.733 		"/>
		<polygon style="fill:#962B23;" points="426.666,499.2 477.866,499.2 477.866,379.733 426.666,379.733 		"/>
	</g>
	<polygon style="fill:#C03A2B;" points="8.532,379.733 503.466,379.733 503.466,277.333 8.532,277.333 	"/>
	<path style="fill:#6D1816;" d="M332.8,277.333H51.2c-14.14,0-25.6-11.46-25.6-25.6c0-14.14,11.46-25.6,25.6-25.6h281.6V277.333z"/>
	<path style="fill:#2C3E50;" d="M503.467,507.733H8.533C3.823,507.733,0,503.91,0,499.2s3.823-8.533,8.533-8.533h494.933
		c4.71,0,8.533,3.823,8.533,8.533S508.177,507.733,503.467,507.733"/>
	<polygon style="fill:#962B23;" points="332.799,277.333 503.466,277.333 503.466,4.267 332.799,4.267 	"/>
	<g>
		<polygon style="fill:#C03A2B;" points="366.932,106.667 469.333,106.667 469.333,38.4 366.932,38.4 		"/>
		<path style="fill:#C03A2B;" d="M366.933,174.933c-4.71,0-8.533-3.823-8.533-8.533v-25.6c0-4.71,3.823-8.533,8.533-8.533
			c4.71,0,8.533,3.823,8.533,8.533v25.6C375.467,171.11,371.644,174.933,366.933,174.933"/>
		<path style="fill:#C03A2B;" d="M469.333,174.933c-4.71,0-8.533-3.823-8.533-8.533v-25.6c0-4.71,3.823-8.533,8.533-8.533
			c4.71,0,8.533,3.823,8.533,8.533v25.6C477.867,171.11,474.044,174.933,469.333,174.933"/>
		<path style="fill:#C03A2B;" d="M435.2,174.933c-4.71,0-8.533-3.823-8.533-8.533v-25.6c0-4.71,3.823-8.533,8.533-8.533
			c4.71,0,8.533,3.823,8.533,8.533v25.6C443.733,171.11,439.91,174.933,435.2,174.933"/>
		<path style="fill:#C03A2B;" d="M401.067,174.933c-4.71,0-8.533-3.823-8.533-8.533v-25.6c0-4.71,3.823-8.533,8.533-8.533
			c4.71,0,8.533,3.823,8.533,8.533v25.6C409.6,171.11,405.777,174.933,401.067,174.933"/>
		<polygon style="fill:#C03A2B;" points="366.932,234.667 401.066,234.667 401.066,200.533 366.932,200.533 		"/>
		<polygon style="fill:#C03A2B;" points="435.199,234.667 469.333,234.667 469.333,200.533 435.199,200.533 		"/>
	</g>
	<g>
		<path style="fill:#F9EBB0;" d="M204.8,149.333h-51.2c-4.71,0-8.533-3.823-8.533-8.533s3.823-8.533,8.533-8.533h51.2
			c4.71,0,8.533,3.823,8.533,8.533S209.51,149.333,204.8,149.333"/>
		<path style="fill:#F9EBB0;" d="M221.867,183.467h-85.333c-4.71,0-8.533-3.823-8.533-8.533s3.823-8.533,8.533-8.533h85.333
			c4.71,0,8.533,3.823,8.533,8.533S226.577,183.467,221.867,183.467"/>
	</g>
	<g>
		<path style="fill:#962B23;" d="M102.4,328.533c0,9.429-7.637,17.067-17.067,17.067s-17.067-7.637-17.067-17.067
			c0-9.429,7.637-17.067,17.067-17.067S102.4,319.104,102.4,328.533"/>
		<path style="fill:#962B23;" d="M170.667,328.533c0,9.429-7.637,17.067-17.067,17.067s-17.067-7.637-17.067-17.067
			c0-9.429,7.637-17.067,17.067-17.067S170.667,319.104,170.667,328.533"/>
		<path style="fill:#962B23;" d="M238.933,328.533c0,9.429-7.637,17.067-17.067,17.067c-9.429,0-17.067-7.637-17.067-17.067
			c0-9.429,7.637-17.067,17.067-17.067C231.296,311.467,238.933,319.104,238.933,328.533"/>
		<path style="fill:#962B23;" d="M307.2,328.533c0,9.429-7.637,17.067-17.067,17.067c-9.429,0-17.067-7.637-17.067-17.067
			c0-9.429,7.637-17.067,17.067-17.067C299.563,311.467,307.2,319.104,307.2,328.533"/>
		<path style="fill:#962B23;" d="M375.467,328.533c0,9.429-7.637,17.067-17.067,17.067c-9.429,0-17.067-7.637-17.067-17.067
			c0-9.429,7.637-17.067,17.067-17.067C367.829,311.467,375.467,319.104,375.467,328.533"/>
		<path style="fill:#962B23;" d="M443.733,328.533c0,9.429-7.637,17.067-17.067,17.067s-17.067-7.637-17.067-17.067
			c0-9.429,7.637-17.067,17.067-17.067S443.733,319.104,443.733,328.533"/>
	</g>
</g>
<g>
</g>
<g>
</g>
<g>
</g>
<g>
</g>
<g>
</g>
<g>
</g>
<g>
</g>
<g>
</g>
<g>
</g>
<g>
</g>
<g>
</g>
<g>
</g>
<g>
</g>
<g>
</g>
<g>
</g>
</svg>
