<svg height="512pt" viewBox="0 -4 512 511" width="512pt" xmlns="http://www.w3.org/2000/svg"><path d="m452.265625 154.101562v-136.535156c0-9.425781-7.640625-17.066406-17.066406-17.066406h-375.464844c-9.425781 0-17.066406 7.640625-17.066406 17.066406v358.398438c0 9.425781 7.640625 17.070312 17.066406 17.070312h375.464844c9.425781 0 17.066406-7.644531 17.066406-17.070312zm0 0" fill="#b0d3f0"/><path d="m452.265625 17.566406v51.199219h-409.597656v-51.199219c.027343-9.414062 7.652343-17.039062 17.066406-17.066406h375.464844c9.414062.027344 17.039062 7.652344 17.066406 17.066406zm0 0" fill="#285680"/><path d="m366.933594 188.234375h119.464844c9.425781 0 17.066406 7.640625 17.066406 17.066406v102.398438c0 9.425781-7.640625 17.066406-17.066406 17.066406h-119.464844c-9.425782 0-17.066406-7.640625-17.066406-17.066406v-102.398438c0-9.425781 7.640624-17.066406 17.066406-17.066406zm0 0" fill="#fb7b76"/><path d="m486.398438 333.300781h-119.464844c-14.140625 0-25.601563-11.460937-25.601563-25.601562v-102.398438c0-14.140625 11.460938-25.601562 25.601563-25.601562h119.464844c14.140624 0 25.601562 11.460937 25.601562 25.601562v102.398438c0 14.140625-11.460938 25.601562-25.601562 25.601562zm-119.464844-136.535156c-4.714844 0-8.535156 3.820313-8.535156 8.535156v102.398438c0 4.714843 3.820312 8.535156 8.535156 8.535156h119.464844c4.714843 0 8.535156-3.820313 8.535156-8.535156v-102.398438c0-4.714843-3.820313-8.535156-8.535156-8.535156zm0 0" fill="#c03a2b"/><path d="m204.800781 265.035156h-42.667969c-4.710937 0-8.53125-3.824218-8.53125-8.535156s3.820313-8.535156 8.53125-8.535156h42.667969c4.710938 0 8.53125-3.820313 8.53125-8.53125v-85.332032c0-4.714843 3.820313-8.535156 8.535157-8.535156 4.710937 0 8.53125 3.820313 8.53125 8.535156v85.332032c0 14.136718-11.460938 25.601562-25.597657 25.601562zm0 0" fill="#3d324c"/><path d="m349.867188 265.035156h-42.667969c-14.136719 0-25.597657-11.464844-25.597657-25.601562v-85.332032c0-4.714843 3.820313-8.535156 8.53125-8.535156 4.714844 0 8.535157 3.820313 8.535157 8.535156v85.332032c0 4.710937 3.820312 8.53125 8.53125 8.53125h42.667969c4.710937 0 8.53125 3.824218 8.53125 8.535156s-3.820313 8.535156-8.53125 8.535156zm0 0" fill="#c03a2b"/><path d="m256 367.433594c-4.710938 0-8.535156-3.820313-8.535156-8.535156v-204.796876c0-4.714843 3.824218-8.535156 8.535156-8.535156s8.535156 3.820313 8.535156 8.535156v204.796876c0 4.714843-3.824218 8.535156-8.535156 8.535156zm0 0" fill="#d25627"/><path d="m85.332031 34.632812c0 4.714844-3.820312 8.535157-8.53125 8.535157-4.714843 0-8.535156-3.820313-8.535156-8.535157 0-4.710937 3.820313-8.53125 8.535156-8.53125 4.710938 0 8.53125 3.820313 8.53125 8.53125zm0 0" fill="#f0c419"/><path d="m119.464844 34.632812c0 4.714844-3.820313 8.535157-8.53125 8.535157-4.714844 0-8.535156-3.820313-8.535156-8.535157 0-4.710937 3.820312-8.53125 8.535156-8.53125 4.710937 0 8.53125 3.820313 8.53125 8.53125zm0 0" fill="#ff5364"/><path d="m153.601562 34.632812c0 4.714844-3.820312 8.535157-8.535156 8.535157-4.710937 0-8.53125-3.820313-8.53125-8.535157 0-4.710937 3.820313-8.53125 8.53125-8.53125 4.714844 0 8.535156 3.820313 8.535156 8.53125zm0 0" fill="#46b29d"/><path d="m392.535156 162.632812c-4.714844 0-8.535156-3.820312-8.535156-8.53125v-34.136718c0-4.710938-3.820312-8.53125-8.535156-8.53125h-238.929688c-4.714844 0-8.535156 3.820312-8.535156 8.53125v34.136718c0 4.710938-3.820312 8.53125-8.535156 8.53125-4.710938 0-8.53125-3.820312-8.53125-8.53125v-34.136718c0-14.136719 11.460937-25.597656 25.601562-25.597656h238.929688c14.140625 0 25.601562 11.460937 25.601562 25.597656v34.136718c0 4.710938-3.820312 8.53125-8.53125 8.53125zm0 0" fill="#cc66a1"/><path d="m443.734375 239.433594c0 9.425781-7.640625 17.066406-17.066406 17.066406s-17.066407-7.640625-17.066407-17.066406c0-9.425782 7.640626-17.066406 17.066407-17.066406s17.066406 7.640624 17.066406 17.066406zm0 0" fill="#fff"/><path d="m426.667969 256.5c18.851562 0 34.132812 15.28125 34.132812 34.132812h-68.265625c0-18.851562 15.28125-34.132812 34.132813-34.132812zm0 0" fill="#fff"/><path d="m25.601562 188.234375h119.464844c9.425782 0 17.066406 7.640625 17.066406 17.066406v102.398438c0 9.425781-7.640624 17.066406-17.066406 17.066406h-119.464844c-9.425781 0-17.066406-7.640625-17.066406-17.066406v-102.398438c0-9.425781 7.640625-17.066406 17.066406-17.066406zm0 0" fill="#b49aca"/><path d="m145.066406 333.300781h-119.464844c-14.140624 0-25.601562-11.460937-25.601562-25.601562v-102.398438c0-14.140625 11.460938-25.601562 25.601562-25.601562h119.464844c14.140625 0 25.601563 11.460937 25.601563 25.601562v102.398438c0 14.140625-11.460938 25.601562-25.601563 25.601562zm-119.464844-136.535156c-4.714843 0-8.535156 3.820313-8.535156 8.535156v102.398438c0 4.714843 3.820313 8.535156 8.535156 8.535156h119.464844c4.714844 0 8.535156-3.820313 8.535156-8.535156v-102.398438c0-4.714843-3.820312-8.535156-8.535156-8.535156zm0 0" fill="#7d6599"/><g fill="#3d324c"><path d="m128 230.898438h-85.332031c-4.714844 0-8.535157-3.820313-8.535157-8.53125 0-4.714844 3.820313-8.535157 8.535157-8.535157h85.332031c4.710938 0 8.535156 3.820313 8.535156 8.535157 0 4.710937-3.824218 8.53125-8.535156 8.53125zm0 0"/><path d="m128 265.035156h-85.332031c-4.714844 0-8.535157-3.824218-8.535157-8.535156s3.820313-8.535156 8.535157-8.535156h85.332031c4.710938 0 8.535156 3.824218 8.535156 8.535156s-3.824218 8.535156-8.535156 8.535156zm0 0"/><path d="m128 299.167969h-85.332031c-4.714844 0-8.535157-3.820313-8.535157-8.535157 0-4.710937 3.820313-8.53125 8.535157-8.53125h85.332031c4.710938 0 8.535156 3.820313 8.535156 8.53125 0 4.714844-3.824218 8.535157-8.535156 8.535157zm0 0"/></g><path d="m196.265625 358.898438h119.46875c9.425781 0 17.066406 7.640624 17.066406 17.066406v102.402344c0 9.425781-7.640625 17.066406-17.066406 17.066406h-119.46875c-9.425781 0-17.066406-7.640625-17.066406-17.066406v-102.402344c0-9.425782 7.640625-17.066406 17.066406-17.066406zm0 0" fill="#f3d55b"/><path d="m315.734375 503.964844h-119.46875c-14.136719 0-25.597656-11.460938-25.597656-25.597656v-102.402344c0-14.136719 11.460937-25.597656 25.597656-25.597656h119.46875c14.136719 0 25.597656 11.460937 25.597656 25.597656v102.402344c0 14.136718-11.460937 25.597656-25.597656 25.597656zm-119.46875-136.53125c-4.710937 0-8.53125 3.820312-8.53125 8.53125v102.402344c0 4.710937 3.820313 8.53125 8.53125 8.53125h119.46875c4.710937 0 8.53125-3.820313 8.53125-8.53125v-102.402344c0-4.710938-3.820313-8.53125-8.53125-8.53125zm0 0" fill="#f29c1f"/><path d="m256 393.035156 15.324219 19.992188 27.34375 6.082031-17.871094 18.441406 1.570313 23.75-26.367188-8.59375-26.367188 8.59375 1.570313-23.75-17.871094-18.441406 27.34375-6.082031zm0 0" fill="#fff"/></svg>