<?xml version="1.0" encoding="iso-8859-1"?>
<!-- Generator: Adobe Illustrator 19.0.0, SVG Export Plug-In . SVG Version: 6.00 Build 0)  -->
<svg version="1.1" id="Layer_1" xmlns="http://www.w3.org/2000/svg" xmlns:xlink="http://www.w3.org/1999/xlink" x="0px" y="0px"
	 viewBox="0 0 512 512" style="enable-background:new 0 0 512 512;" xml:space="preserve">
<g>
	<g>
		<path style="fill:#BDC3C7;" d="M187.733,251.733c-2.185,0-4.369-0.836-6.033-2.5l-128-128c-3.337-3.337-3.337-8.73,0-12.066
			c3.337-3.337,8.73-3.337,12.066,0l128,128c3.337,3.337,3.337,8.73,0,12.066C192.102,250.897,189.918,251.733,187.733,251.733"/>
		<path style="fill:#BDC3C7;" d="M324.267,251.733c-2.185,0-4.369-0.836-6.033-2.5c-3.337-3.337-3.337-8.73,0-12.066l128-128
			c3.337-3.337,8.73-3.337,12.066,0c3.337,3.337,3.337,8.73,0,12.066l-128,128C328.636,250.897,326.451,251.733,324.267,251.733"/>
	</g>
	<polygon style="fill:#E64C3C;" points="418.133,499.2 93.867,499.2 42.667,294.4 469.333,294.4 	"/>
	<g>
		<polygon style="fill:#ECF0F1;" points="17.067,294.4 494.933,294.4 494.933,243.2 17.067,243.2 		"/>
		<path style="fill:#ECF0F1;" d="M179.2,465.067c-4.71,0-8.533-3.823-8.533-8.533V337.067c0-4.71,3.823-8.533,8.533-8.533
			s8.533,3.823,8.533,8.533v119.467C187.733,461.244,183.91,465.067,179.2,465.067"/>
		<path style="fill:#ECF0F1;" d="M230.4,465.067c-4.71,0-8.533-3.823-8.533-8.533V337.067c0-4.71,3.823-8.533,8.533-8.533
			s8.533,3.823,8.533,8.533v119.467C238.933,461.244,235.11,465.067,230.4,465.067"/>
		<path style="fill:#ECF0F1;" d="M281.6,465.067c-4.71,0-8.533-3.823-8.533-8.533V337.067c0-4.71,3.823-8.533,8.533-8.533
			s8.533,3.823,8.533,8.533v119.467C290.133,461.244,286.31,465.067,281.6,465.067"/>
		<path style="fill:#ECF0F1;" d="M332.8,465.067c-4.71,0-8.533-3.823-8.533-8.533V337.067c0-4.71,3.823-8.533,8.533-8.533
			s8.533,3.823,8.533,8.533v119.467C341.333,461.244,337.51,465.067,332.8,465.067"/>
	</g>
	<path style="fill:#13A085;" d="M256,217.6c-2.185,0-4.369-0.836-6.033-2.5L181.7,146.833c-2.441-2.441-3.174-6.11-1.852-9.301
		c1.323-3.183,4.437-5.265,7.885-5.265h34.133V21.333c0-4.71,3.823-8.533,8.533-8.533h51.2c4.71,0,8.533,3.823,8.533,8.533v110.933
		h34.133c3.447,0,6.562,2.082,7.885,5.265c1.323,3.191,0.589,6.861-1.852,9.301L262.033,215.1
		C260.369,216.764,258.185,217.6,256,217.6"/>
	<g>
		<path style="fill:#F0C419;" d="M34.133,123.733C15.309,123.733,0,108.425,0,89.6s15.309-34.133,34.133-34.133
			S68.267,70.775,68.267,89.6S52.958,123.733,34.133,123.733"/>
		<path style="fill:#F0C419;" d="M477.867,123.733c-18.825,0-34.133-15.309-34.133-34.133s15.309-34.133,34.133-34.133
			C496.691,55.467,512,70.775,512,89.6S496.691,123.733,477.867,123.733"/>
	</g>
	<polygon style="fill:#AD392D;" points="443.733,294.4 392.533,499.2 418.133,499.2 469.333,294.4 	"/>
	<polygon style="fill:#EC7063;" points="68.267,294.4 119.467,499.2 93.867,499.2 42.667,294.4 	"/>
	<g>
		<path style="fill:#B49313;" d="M477.867,55.467c-2.961,0-5.786,0.495-8.533,1.212c14.677,3.814,25.6,17.067,25.6,32.922
			s-10.923,29.107-25.6,32.922c2.748,0.717,5.572,1.212,8.533,1.212c18.825,0,34.133-15.309,34.133-34.133
			S496.691,55.467,477.867,55.467"/>
		<path style="fill:#B49313;" d="M34.133,55.467c-2.961,0-5.786,0.495-8.533,1.212C40.277,60.493,51.2,73.745,51.2,89.6
			s-10.923,29.107-25.6,32.922c2.748,0.717,5.572,1.212,8.533,1.212c18.825,0,34.133-15.309,34.133-34.133
			S52.958,55.467,34.133,55.467"/>
	</g>
	<polygon style="fill:#B1B4B5;" points="469.333,294.4 494.933,294.4 494.933,243.2 469.333,243.2 	"/>
	<polygon style="fill:#F4F7F7;" points="17.067,294.4 42.667,294.4 42.667,243.2 17.067,243.2 	"/>
	<g>
		<path style="fill:#43B39D;" d="M181.7,146.833l68.267,68.267c1.664,1.664,3.849,2.5,6.033,2.5c2.185,0,4.369-0.836,6.033-2.5
			l2.5-2.5l-65.766-65.766c-2.441-2.441-3.174-6.11-1.852-9.301c1.323-3.183,4.437-5.265,7.885-5.265h-17.067
			c-3.447,0-6.562,2.082-7.885,5.265C178.526,140.723,179.26,144.393,181.7,146.833"/>
		<path style="fill:#43B39D;" d="M238.933,21.333c0-4.71,3.823-8.533,8.533-8.533H230.4c-4.71,0-8.533,3.823-8.533,8.533v110.933
			h17.067V21.333z"/>
	</g>
	<g>
		<path style="fill:#0F7864;" d="M330.3,146.833L262.033,215.1c-1.664,1.664-3.849,2.5-6.033,2.5c-2.185,0-4.369-0.836-6.033-2.5
			l-2.5-2.5l65.766-65.766c2.441-2.441,3.174-6.11,1.852-9.301c-1.323-3.183-4.437-5.265-7.885-5.265h17.067
			c3.447,0,6.562,2.082,7.885,5.265C333.474,140.723,332.74,144.393,330.3,146.833"/>
		<path style="fill:#0F7864;" d="M273.067,21.333c0-4.71-3.823-8.533-8.533-8.533H281.6c4.71,0,8.533,3.823,8.533,8.533v110.933
			h-17.067V21.333z"/>
	</g>
</g>
<g>
</g>
<g>
</g>
<g>
</g>
<g>
</g>
<g>
</g>
<g>
</g>
<g>
</g>
<g>
</g>
<g>
</g>
<g>
</g>
<g>
</g>
<g>
</g>
<g>
</g>
<g>
</g>
<g>
</g>
</svg>
