<svg height="512" viewBox="0 0 58 58" width="512" xmlns="http://www.w3.org/2000/svg"><g id="007---Securing-Funding" fill="none"><g fill="#e64c3c"><path id="Shape" d="m54.92 27c-.9819935-12.7818317-11.1381683-22.93800652-23.92-23.92v5.02c10.0155949.95585623 17.9441438 8.8844051 18.9 18.9z"/><path id="Shape" d="m3.08 31c.98199348 12.7818317 11.1381683 22.9380065 23.92 23.92v-5.02c-10.0155949-.9558562-17.94414377-8.8844051-18.9-18.9z"/><path id="Shape" d="m27 3.08c-12.7818317.98199348-22.93800652 11.1381683-23.92 23.92h5.02c.95585623-10.0155949 8.8844051-17.94414377 18.9-18.9z"/><path id="Shape" d="m54.92 31c-.9819935 12.7818317-11.1381683 22.9380065-23.92 23.92v-5.02c10.0155949-.9558562 17.9441438-8.8844051 18.9-18.9z"/></g><path id="Shape" d="m41 33c0 4.97-5.37 9-12 9-10.751 0-16.008-9.814-8.421-15.412.8742878-.6189432 1.4018907-1.6169703 1.421-2.688.0640054-1.0009161-.3104738-1.9801828-1.026-2.683-1.0976525-1.0096391-1.2869766-2.6722925-.4444137-3.9028613.842563-1.2305688 2.4611468-1.6553587 3.7994137-.9971387.9802867.5553243 2.1724555.5871804 3.181.085.9236967-.5260131 2.0563033-.5260131 2.98 0 1.0085445.5021804 2.2007133.4703243 3.181-.085 1.3382669-.65822 2.9568507-.2334301 3.7994137.9971387.8425629 1.2305688.6532388 2.8932222-.4444137 3.9028613-.725984.7346416-1.099095 1.7471631-1.0233977 2.7772218s.5928178 1.9771585 1.4183977 2.5977782c2.1528952 1.4372512 3.4843626 3.8211694 3.579 6.408z" fill="#a59078"/><path id="Shape" d="m36.19 24.39c-2.375623.4022163-4.7805709.6062522-7.19.61-.5522847 0-1-.4477153-1-1s.4477153-1 1-1c5.6 0 6.739-.9 7.5-.48.3790541.2016658.5870673.6227955.5168481 1.0463759s-.4029966.7550603-.8268481.8236241z" fill="#a56a43"/><path id="Shape" d="m43 28c-.4783541-.0008536-.8891133-.3403587-.98-.81-.31-1.633-4.345-2.61-5.96-2.78-.05-.01-.1-.01-.15-.02-.5078242-.1024601-.8533162-.5757896-.7961063-1.0906785.0572099-.5148888.4981768-.9008341 1.0161063-.8893215 1.5042253.1724447 2.9798115.5388203 4.39 1.09 4.144 1.678 4.019 4.5 2.48 4.5z" fill="#a56a43"/><path id="Shape" d="m36.7 24.51c-.1 0-.079-.041-.64-.1-.15.03-.31.05-.48.08-.3884412-.2007528-.6014121-.6305939-.5258164-1.0612603s.4222261-.7622797.8558164-.8187397c.486-.054.688-.12.79-.12 2.01-.35 5.05-1.26 5.32-2.68.1058045-.540663.62897-.8939115 1.17-.79 1.81.336.886 4.436-6.49 5.49z" fill="#a56a43"/><path id="Shape" d="m29 25c-2.4088074-.0066635-4.81296-.2120266-7.188-.614-.5445527-.0927839-.9107838-.6094472-.818-1.154.0927839-.5445527.6094472-.9107838 1.154-.818 2.2639947.3834616 4.55577.5794599 6.852.586.5522847 0 1 .4477153 1 1s-.4477153 1-1 1z" fill="#a56a43"/><path id="Shape" d="m29 39c-4.261 0-5.4-4.5-3.333-4.5.5522847 0 1 .4477153 1 1 0 .8 1.09 1.5 2.333 1.5s2.333-.7 2.333-1.5-1.09-1.5-2.333-1.5c-2.39 0-4.333-1.57-4.333-3.5s1.943-3.5 4.333-3.5c4.261 0 5.4 4.5 3.333 4.5-.5522847 0-1-.4477153-1-1 0-.8-1.09-1.5-2.333-1.5s-2.333.7-2.333 1.5 1.09 1.5 2.333 1.5c2.39 0 4.333 1.57 4.333 3.5s-1.943 3.5-4.333 3.5z" fill="#5f5346"/><path id="Shape" d="m29 39.833c-.5522847 0-1-.4477153-1-1v-11.666c0-.5522847.4477153-1 1-1s1 .4477153 1 1v11.666c0 .5522847-.4477153 1-1 1z" fill="#5f5346"/><path id="Shape" d="m29 11c-1.1045695 0-2-.8954305-2-2v-7c0-1.1045695.8954305-2 2-2s2 .8954305 2 2v7c0 1.1045695-.8954305 2-2 2z" fill="#c03a2b"/><path id="Shape" d="m29 58c-1.1045695 0-2-.8954305-2-2v-7c0-1.1045695.8954305-2 2-2s2 .8954305 2 2v7c0 1.1045695-.8954305 2-2 2z" fill="#c03a2b"/><path id="Shape" d="m47 29c0-1.1045695.8954305-2 2-2h7c1.1045695 0 2 .8954305 2 2s-.8954305 2-2 2h-7c-1.1045695 0-2-.8954305-2-2z" fill="#c03a2b"/><path id="Shape" d="m0 29c0-1.1045695.8954305-2 2-2h7c1.1045695 0 2 .8954305 2 2s-.8954305 2-2 2h-7c-1.1045695 0-2-.8954305-2-2z" fill="#c03a2b"/></g></svg>